<svg width="27" height="18" viewBox="0 0 27 18" fill="none" xmlns="http://www.w3.org/2000/svg">
<path d="M24.2364 0H2.76439C1.23804 0 0 1.25759 0 2.80918V14.7983C0 16.349 1.23767 17.607 2.76439 17.607H3.73712C3.73712 17.556 3.73476 17.5048 3.74926 17.4531L4.86319 13.4892C4.93135 13.2479 5.14772 13.0816 5.39501 13.0816H21.8074C22.0644 13.0816 22.2877 13.2614 22.3457 13.5152L23.2578 17.4796C23.2682 17.523 23.2615 17.5646 23.2615 17.607H24.2359C25.762 17.607 27 16.3501 27 14.7983V2.80918C27.0009 1.25796 25.7629 0 24.2364 0ZM2.11027 11.6305V5.20572H4.38039C3.8313 5.99531 3.50823 6.95819 3.50823 7.99872C3.50823 9.44471 4.13224 10.7423 5.1212 11.6295H2.11027V11.6305ZM8.27217 10.7925C6.75406 10.7925 5.52345 9.54162 5.52345 7.99922C5.52345 6.45657 6.75406 5.20622 8.27217 5.20622C9.78978 5.20622 11.0209 6.45663 11.0209 7.99922C11.0209 9.54162 9.78978 10.7925 8.27217 10.7925ZM11.4236 11.6305C12.4123 10.7423 13.0361 9.44547 13.0361 7.99922C13.0361 6.95913 12.7135 5.99531 12.1634 5.20622H14.8376C14.2881 5.99587 13.9653 6.95869 13.9653 7.99922C13.9653 9.4454 14.5893 10.7433 15.5782 11.6305H11.4236ZM18.729 10.7925C17.2119 10.7925 15.9805 9.54162 15.9805 7.99922C15.9805 6.45657 17.2119 5.20622 18.729 5.20622C20.2471 5.20622 21.478 6.45663 21.478 7.99922C21.478 9.54162 20.2471 10.7925 18.729 10.7925ZM2.73558 3.71281V2.2228H24.2657V3.71281H2.73558ZM24.8909 11.6305H21.8807C22.8692 10.7423 23.4934 9.44547 23.4934 7.99922C23.4934 6.95913 23.1704 5.99531 22.6212 5.20622H24.8909V11.6305Z" fill="black"/>
<path d="M8.64908 6.08076C8.60924 6.05853 8.56593 6.04216 8.51722 6.04216C8.48804 6.04216 8.46171 6.0506 8.43556 6.0591C8.38116 6.05444 8.32806 6.04216 8.27266 6.04216C7.21078 6.04216 6.34741 6.92003 6.34741 7.99872C6.34741 9.07778 7.21115 9.95541 8.27266 9.95541C9.33455 9.95541 10.1984 9.07772 10.1984 7.99872C10.1979 7.05114 9.53091 6.25966 8.64908 6.08076ZM9.64479 7.99922C9.64479 8.14116 9.61771 8.27604 9.57874 8.40526L9.12618 8.13965C8.99395 8.06194 8.82511 8.1081 8.7489 8.24248C8.67244 8.37698 8.71773 8.54858 8.84995 8.62584L9.31293 8.89807C9.11787 9.13074 8.8538 9.30158 8.54889 9.36543V8.80348C8.54889 8.64801 8.42534 8.52257 8.27266 8.52257C8.11993 8.52257 7.99644 8.64801 7.99644 8.80348V9.36543C7.69073 9.30158 7.42671 9.13074 7.23166 8.89706L7.69438 8.62578C7.82661 8.54852 7.87184 8.37692 7.79556 8.24242C7.7191 8.10804 7.54921 8.06188 7.41785 8.13959L6.96659 8.40469C6.92761 8.27497 6.90029 8.14059 6.90029 7.99916C6.90029 7.83449 6.93356 7.67883 6.98555 7.53204L7.41859 7.78632C7.46178 7.81138 7.50924 7.82366 7.55602 7.82366C7.652 7.82366 7.74488 7.77322 7.79587 7.68349C7.87209 7.54898 7.82655 7.37688 7.69482 7.29962L7.27144 7.05145C7.51519 6.78572 7.85821 6.61658 8.24144 6.60757V7.12274C8.24144 7.2779 8.36499 7.40358 8.51766 7.40358C8.67039 7.40358 8.79388 7.2779 8.79388 7.12274V6.7099C8.97772 6.78717 9.13925 6.90524 9.27321 7.05108L8.84952 7.29962C8.71717 7.37733 8.67182 7.54892 8.74834 7.68349C8.79939 7.77316 8.89221 7.82366 8.98794 7.82366C9.03522 7.82366 9.08243 7.81182 9.12611 7.78632L9.56003 7.5316C9.61177 7.67801 9.64479 7.83405 9.64479 7.99922Z" fill="black"/>
<path d="M18.729 6.04216C17.6673 6.04216 16.8042 6.92003 16.8042 7.99872C16.8042 9.07778 17.6673 9.95541 18.729 9.95541C19.791 9.95541 20.6546 9.07772 20.6546 7.99872C20.6546 6.92003 19.791 6.04216 18.729 6.04216ZM20.0358 8.40526L19.5828 8.13965C19.451 8.06194 19.282 8.1081 19.2059 8.24248C19.1295 8.37698 19.1744 8.54858 19.307 8.62584L19.7701 8.89807C19.5754 9.13074 19.3113 9.30158 19.0058 9.36543V8.80348C19.0058 8.64801 18.8824 8.52257 18.7299 8.52257C18.577 8.52257 18.4534 8.64801 18.4534 8.80348V9.36543C18.1474 9.30158 17.8835 9.13074 17.6886 8.89706L18.1514 8.62578C18.2833 8.54852 18.3289 8.37692 18.2525 8.24242C18.1755 8.10804 18.0059 8.06188 17.8748 8.13959L17.4236 8.40469C17.3847 8.27497 17.3571 8.14059 17.3571 7.99916C17.3571 7.83449 17.3904 7.67883 17.4425 7.53204L17.8753 7.78632C17.9185 7.81138 17.966 7.82366 18.0136 7.82366C18.1084 7.82366 18.2015 7.77322 18.2535 7.68349C18.3299 7.54898 18.2842 7.37688 18.1521 7.29962L17.7295 7.05145C17.9204 6.8439 18.1693 6.69214 18.4534 6.63295V7.12274C18.4534 7.2779 18.5775 7.40358 18.7299 7.40358C18.8829 7.40358 19.0064 7.2779 19.0064 7.12274V6.63295C19.2904 6.69214 19.5402 6.8434 19.7304 7.05108L19.3071 7.29962C19.1745 7.37733 19.1295 7.54892 19.206 7.68349C19.2571 7.77316 19.3497 7.82366 19.4453 7.82366C19.4927 7.82366 19.5401 7.81182 19.5839 7.78632L20.0177 7.5316C20.0703 7.67845 20.1026 7.83456 20.1026 7.99922C20.1019 8.14116 20.0751 8.27604 20.0358 8.40526Z" fill="black"/>
<path d="M21.37 14.2045H5.81229L4.85605 17.607H22.1523L21.37 14.2045ZM7.98954 16.568C7.61635 16.568 7.31379 16.2611 7.31379 15.8817C7.31379 15.5022 7.61635 15.1953 7.98954 15.1953C8.36261 15.1953 8.66516 15.5022 8.66516 15.8817C8.66522 16.2611 8.36261 16.568 7.98954 16.568ZM19.269 16.568C18.896 16.568 18.5941 16.2611 18.5941 15.8817C18.5941 15.5022 18.896 15.1953 19.269 15.1953C19.642 15.1953 19.9449 15.5022 19.9449 15.8817C19.9449 16.2611 19.642 16.568 19.269 16.568Z" fill="black"/>
</svg>
